<?xml version="1.0" encoding="UTF-8"?>
<svg width="155px" height="40px" viewBox="0 0 155 40" version="1.1" xmlns="http://www.w3.org/2000/svg" xmlns:xlink="http://www.w3.org/1999/xlink">
    <!-- Generator: Sketch 53 (72520) - https://sketchapp.com -->
    <title>logo-snapscan</title>
    <desc>Created with Sketch.</desc>
    <g id="Page-1" stroke="none" stroke-width="1" fill="none" fill-rule="evenodd">
        <g id="SnapScan-Assets" transform="translate(-84.000000, -81.000000)" fill="#3B77BC">
            <g id="logo/snapscan-horizontal" transform="translate(89.000000, 85.000000)">
                <path d="M40.1,20.7 L41.7,18.5 C42.8,19.7 44.5,20.7 46.7,20.7 C49,20.7 49.9,19.6 49.9,18.5 C49.9,15.2 40.7,17.2 40.7,11.4 C40.7,8.8 43,6.7 46.5,6.7 C48.9,6.7 51,7.5 52.4,8.9 L50.8,11 C49.5,9.7 47.9,9.2 46.2,9.2 C44.6,9.2 43.5,10 43.5,11.2 C43.5,14.2 52.7,12.3 52.7,18.2 C52.7,20.8 50.8,23.1 46.6,23.1 C43.7,23.3 41.5,22.2 40.1,20.7" id="XMLID_634_" fill-rule="evenodd"></path>
                <path d="M63,23 L63,15.8 C63,14 62.1,13.4 60.7,13.4 C59.4,13.4 58.3,14.2 57.8,14.9 L57.8,22.9 L55.3,22.9 L55.3,11.5 L57.8,11.5 L57.8,13 C58.6,12.1 60.1,11.2 61.9,11.2 C64.4,11.2 65.6,12.5 65.6,14.9 L65.6,23 L63,23 Z" id="XMLID_633_" fill-rule="evenodd"></path>
                <path d="M75.7,23 L75.7,21.7 C74.8,22.7 73.5,23.2 72,23.2 C70.1,23.2 68,21.9 68,19.4 C68,16.7 70.1,15.6 72,15.6 C73.6,15.6 74.9,16.1 75.7,17.1 L75.7,15.4 C75.7,14.1 74.6,13.3 73,13.3 C71.7,13.3 70.6,13.8 69.6,14.8 L68.6,13.1 C69.9,11.8 71.6,11.2 73.4,11.2 C76,11.2 78.2,12.3 78.2,15.3 L78.2,23 L75.7,23 Z M75.7,20.4 L75.7,18.6 C75.1,17.8 74,17.4 73,17.4 C71.6,17.4 70.5,18.2 70.5,19.5 C70.5,20.8 71.6,21.6 73,21.6 C74.1,21.5 75.2,21.1 75.7,20.4 L75.7,20.4 Z" id="XMLID_628_" fill-rule="nonzero"></path>
                <path d="M84,21.4 L84,27.4 L81.5,27.4 L81.5,11.5 L84,11.5 L84,13.1 C84.9,12 86.2,11.2 87.7,11.2 C90.7,11.2 92.8,13.4 92.8,17.2 C92.8,21 90.7,23.2 87.7,23.2 C86.2,23.3 84.9,22.6 84,21.4 M90.2,17.2 C90.2,15 88.9,13.4 86.9,13.4 C85.7,13.4 84.5,14.1 84,14.9 L84,19.4 C84.5,20.3 85.8,21 86.9,21 C88.9,21 90.2,19.5 90.2,17.2" id="XMLID_621_" fill-rule="nonzero"></path>
                <path d="M94.3,20.7 L95.9,18.5 C97,19.7 98.7,20.7 100.9,20.7 C103.2,20.7 104.1,19.6 104.1,18.5 C104.1,15.2 94.9,17.2 94.9,11.4 C94.9,8.8 97.2,6.7 100.7,6.7 C103.1,6.7 105.2,7.5 106.6,8.9 L105,11 C103.7,9.7 102.1,9.2 100.4,9.2 C98.8,9.2 97.7,10 97.7,11.2 C97.7,14.2 106.9,12.3 106.9,18.2 C106.9,20.8 105,23.1 100.8,23.1 C97.8,23.3 95.7,22.2 94.3,20.7" id="XMLID_619_" fill-rule="evenodd"></path>
                <path d="M108.7,17.2 C108.7,13.7 111.1,11.2 114.6,11.2 C116.9,11.2 118.2,12.2 119,13.2 L117.4,14.7 C116.8,13.8 115.9,13.4 114.8,13.4 C112.7,13.4 111.3,15 111.3,17.2 C111.3,19.4 112.7,21 114.8,21 C115.9,21 116.8,20.5 117.4,19.6 L119,21.1 C118.2,22.2 116.9,23.1 114.6,23.1 C111.1,23.3 108.7,20.7 108.7,17.2" id="XMLID_618_" fill-rule="evenodd"></path>
                <path d="M128.3,23 L128.3,21.7 C127.4,22.7 126.1,23.2 124.6,23.2 C122.7,23.2 120.6,21.9 120.6,19.4 C120.6,16.7 122.7,15.6 124.6,15.6 C126.2,15.6 127.5,16.1 128.3,17.1 L128.3,15.4 C128.3,14.1 127.2,13.3 125.6,13.3 C124.3,13.3 123.2,13.8 122.2,14.8 L121.2,13.1 C122.5,11.8 124.2,11.2 126,11.2 C128.6,11.2 130.8,12.3 130.8,15.3 L130.8,23 L128.3,23 Z M128.3,20.4 L128.3,18.6 C127.7,17.8 126.6,17.4 125.6,17.4 C124.2,17.4 123.1,18.2 123.1,19.5 C123.1,20.8 124.2,21.6 125.6,21.6 C126.6,21.5 127.7,21.1 128.3,20.4 L128.3,20.4 Z" id="XMLID_26_" fill-rule="nonzero"></path>
                <path d="M141.8,23 L141.8,15.8 C141.8,14 140.9,13.4 139.5,13.4 C138.2,13.4 137.1,14.2 136.6,14.9 L136.6,22.9 L134,22.9 L134,11.5 L136.5,11.5 L136.5,13 C137.3,12.1 138.8,11.2 140.6,11.2 C143.1,11.2 144.3,12.5 144.3,14.9 L144.3,23 L141.8,23 Z" id="XMLID_24_" fill-rule="evenodd"></path>
                <g id="logo/snapscan-icon" transform="translate(0.000000, 1.000000)">
                    <path d="M15,0 C6.68918919,0 0,6.68918919 0,15 C0,23.3108108 6.68918919,30 15,30 C23.3108108,30 30,23.3108108 30,15 C30,6.68918919 23.3108108,0 15,0 M15,28.9864865 C7.2972973,28.9864865 1.01351351,22.7027027 1.01351351,15 C1.01351351,7.2972973 7.2972973,1.01351351 15,1.01351351 C22.7027027,1.01351351 28.9864865,7.2972973 28.9864865,15 C28.9864865,22.7027027 22.7027027,28.9864865 15,28.9864865" id="XMLID_19_" fill-rule="nonzero"></path>
                    <path d="M13.0740741,9 L9.92592593,9 C9.46296296,9 9,9.37037037 9,9.92592593 L9,13.0740741 C9,13.537037 9.37037037,14 9.92592593,14 L13.0740741,14 C13.537037,14 14,13.6296296 14,13.0740741 L14,9.92592593 C13.9074074,9.37037037 13.537037,9 13.0740741,9" id="XMLID_14_" fill-rule="evenodd"></path>
                    <path d="M13.0740741,16 L9.92592593,16 C9.46296296,16 9,16.3703704 9,16.9259259 L9,20.0740741 C9,20.537037 9.37037037,21 9.92592593,21 L13.0740741,21 C13.537037,21 14,20.6296296 14,20.0740741 L14,16.9259259 C13.9074074,16.3703704 13.537037,16 13.0740741,16" id="XMLID_14_-Copy" fill-rule="evenodd"></path>
                    <path d="M20.0740741,9 L16.9259259,9 C16.462963,9 16,9.37037037 16,9.92592593 L16,13.0740741 C16,13.537037 16.3703704,14 16.9259259,14 L20.0740741,14 C20.537037,14 21,13.6296296 21,13.0740741 L21,9.92592593 C21,9.37037037 20.6296296,9 20.0740741,9" id="XMLID_12_" fill-rule="evenodd"></path>
                </g>
            </g>
        </g>
    </g>
</svg>